<?xml version="1.0" encoding="utf-8"?>
<!-- Generator: Adobe Illustrator 16.2.1, SVG Export Plug-In . SVG Version: 6.00 Build 0)  -->
<!DOCTYPE svg PUBLIC "-//W3C//DTD SVG 1.1//EN" "http://www.w3.org/Graphics/SVG/1.1/DTD/svg11.dtd">
<svg version="1.1" id="Layer_1" xmlns="http://www.w3.org/2000/svg" xmlns:xlink="http://www.w3.org/1999/xlink" x="0px" y="0px"
	 width="32px" height="32px" viewBox="0 0 32 32" enable-background="new 0 0 32 32" xml:space="preserve">
<g>
	<g>
		<path d="M14.189,8.725c-2.091,0-3.614,0.674-3.614,2.764v2.72H8.799v7.261h10.907v-7.261h-1.873v-2.72
			C17.833,9.398,16.28,8.725,14.189,8.725z M16.116,14.208h-3.765v-1.823c0-1.273,0.567-1.88,1.838-1.88
			c1.273,0,1.927,0.606,1.927,1.88V14.208z M21.343,16.006l5.004,5.935l5.153-5.935h-3.835c0-0.028,0.004-0.053,0.004-0.08
			c0-7.492-6.094-13.586-13.583-13.586C6.595,2.34,0.5,8.435,0.5,15.926c0,7.49,6.094,13.733,13.585,13.733
			c3.473,0,6.633-1.011,9.042-3.161l-1.928-2.041c-1.899,1.675-4.387,2.546-7.114,2.546c-5.943,0-10.776-5.133-10.776-11.077
			c0-5.94,4.833-11.001,10.776-11.001s10.776,5.061,10.776,11.001c0,0.026-0.006,0.051-0.006,0.08H21.343z"/>
	</g>
</g>
</svg>
