<?xml version="1.0" encoding="utf-8"?>
<!-- Generator: Adobe Illustrator 16.2.1, SVG Export Plug-In . SVG Version: 6.00 Build 0)  -->
<!DOCTYPE svg PUBLIC "-//W3C//DTD SVG 1.1//EN" "http://www.w3.org/Graphics/SVG/1.1/DTD/svg11.dtd">
<svg version="1.1" id="Layer_1" xmlns="http://www.w3.org/2000/svg" xmlns:xlink="http://www.w3.org/1999/xlink" x="0px" y="0px"
	 width="32px" height="32px" viewBox="0 0 32 32" enable-background="new 0 0 32 32" xml:space="preserve">
<g>
	<g>
		<path d="M25.871,11.459H3.028v9.158h22.843V11.459z M30.786,12.973h-1.892V9.644c0-0.669-0.537-1.21-1.206-1.21H1.212
			C0.543,8.434,0,8.975,0,9.644v12.709c0,0.669,0.543,1.214,1.212,1.214h26.476c0.669,0,1.206-0.545,1.206-1.214v-3.251h1.892
			c0.669,0,1.214-0.541,1.214-1.21v-3.709C32,13.514,31.455,12.973,30.786,12.973z M27.383,22.051H1.514V9.945h25.869V22.051z
			 M30.41,17.462h-1.516v-2.976h1.516V17.462z"/>
	</g>
</g>
</svg>
