<?xml version="1.0" encoding="utf-8"?>
<!-- Generator: Adobe Illustrator 17.0.0, SVG Export Plug-In . SVG Version: 6.00 Build 0)  -->
<!DOCTYPE svg PUBLIC "-//W3C//DTD SVG 1.1//EN" "http://www.w3.org/Graphics/SVG/1.1/DTD/svg11.dtd">
<svg version="1.1" id="Layer_1" xmlns="http://www.w3.org/2000/svg" xmlns:xlink="http://www.w3.org/1999/xlink" x="0px" y="0px"
	 width="32px" height="32px" viewBox="0 0 32 32" enable-background="new 0 0 32 32" xml:space="preserve">
<g enable-background="new    ">
	<path d="M3.742,11.263c-0.838,0-1.518,0.67-1.518,1.496v6.483c0,0.826,0.68,1.496,1.518,1.496h22.067
		c0.839,0,1.518-0.67,1.518-1.496v-6.483c0-0.825-0.679-1.496-1.518-1.496C25.809,11.263,3.742,11.263,3.742,11.263z M27.939,19.673
		c0,0.936-0.749,1.695-1.673,1.695H3.286c-0.924,0-1.673-0.759-1.673-1.695v-7.347c0-0.936,0.749-1.695,1.673-1.695h22.979
		c0.924,0,1.673,0.759,1.673,1.695L27.939,19.673L27.939,19.673z M26.714,10H2.837C1.822,10,1,10.848,1,11.895v8.211
		C1,21.151,1.822,22,2.837,22h23.878c1.014,0,1.837-0.849,1.837-1.895v-8.211C28.551,10.848,27.728,10,26.714,10z M29.163,13.789
		v4.421c1.014,0,1.837-0.849,1.837-1.895v-0.632C31,14.638,30.178,13.789,29.163,13.789z"/>
</g>
</svg>
