<?xml version="1.0" encoding="utf-8"?>
<!-- Generator: Adobe Illustrator 17.0.0, SVG Export Plug-In . SVG Version: 6.00 Build 0)  -->
<!DOCTYPE svg PUBLIC "-//W3C//DTD SVG 1.1//EN" "http://www.w3.org/Graphics/SVG/1.1/DTD/svg11.dtd">
<svg version="1.1" id="Layer_1" xmlns="http://www.w3.org/2000/svg" xmlns:xlink="http://www.w3.org/1999/xlink" x="0px" y="0px"
	 width="32px" height="32px" viewBox="0 0 32 32" enable-background="new 0 0 32 32" xml:space="preserve">
<g>
	<path d="M16.674,14.708h-5.391v-2.583c0-1.426,1.208-2.583,2.696-2.583s2.696,1.157,2.696,2.583L16.674,14.708L16.674,14.708z
		 M13.978,8.25c-2.233,0-4.043,1.735-4.043,3.875v2.583H8.587v7.75H19.37v-7.75h-1.348v-2.583C18.022,9.985,16.212,8.25,13.978,8.25
		z M26.783,19.875l4.717-5.167h-4.112c-0.677-6.527-6.421-11.625-13.41-11.625C6.534,3.083,0.5,8.867,0.5,16
		c0,7.134,6.034,12.917,13.478,12.917c4.941,0,9.247-2.555,11.594-6.352l-1.375-1.054c-2.012,3.419-5.831,5.732-10.219,5.732
		C7.499,27.243,2.247,22.209,2.247,16S7.499,4.757,13.978,4.757c6.022,0,10.978,4.352,11.648,9.951h-3.561L26.783,19.875z"/>
</g>
</svg>
