<?xml version="1.0" encoding="utf-8"?>
<!-- Generator: Adobe Illustrator 17.0.0, SVG Export Plug-In . SVG Version: 6.00 Build 0)  -->
<!DOCTYPE svg PUBLIC "-//W3C//DTD SVG 1.1//EN" "http://www.w3.org/Graphics/SVG/1.1/DTD/svg11.dtd">
<svg version="1.1" id="Layer_1" xmlns="http://www.w3.org/2000/svg" xmlns:xlink="http://www.w3.org/1999/xlink" x="0px" y="0px"
	 width="32px" height="32px" viewBox="0 0 32 32" enable-background="new 0 0 32 32" xml:space="preserve">
<g>
	<g>
		<path id="SVGID_1_" d="M16.83,8.979v7.468l4.787,4.787l1.596-1.596l-4.149-4.149v-6.51H16.83z M17.979,2.915
			c-7.085,0-12.894,5.681-13.021,12.702H1l5.872,6.574l5.872-6.574H8.213c0.128-5.234,4.468-9.447,9.766-9.447
			c5.362,0,9.766,4.404,9.766,9.83c0,5.362-4.404,9.766-9.766,9.766c-2.17,0-4.149-0.702-5.809-1.915l-2.234,2.426
			c2.234,1.723,4.979,2.809,8.043,2.809C25.191,29.085,31,23.213,31,16C31,8.723,25.191,2.915,17.979,2.915z"/>
	</g>
</g>
</svg>
