<?xml version="1.0" encoding="utf-8"?>
<!-- Generator: Adobe Illustrator 17.0.0, SVG Export Plug-In . SVG Version: 6.00 Build 0)  -->
<!DOCTYPE svg PUBLIC "-//W3C//DTD SVG 1.1//EN" "http://www.w3.org/Graphics/SVG/1.1/DTD/svg11.dtd">
<svg version="1.1" id="Layer_1" xmlns="http://www.w3.org/2000/svg" xmlns:xlink="http://www.w3.org/1999/xlink" x="0px" y="0px"
	 width="32px" height="32px" viewBox="0 0 32 32" enable-background="new 0 0 32 32" xml:space="preserve">
<path id="SVGID_1_" d="M16,16c-0.54-0.648,0.918-2.916,0-2.916c-1.674,0-2.97,1.296-2.97,2.916c0,1.566,1.296,2.862,2.97,2.862
	s3.024-1.296,3.024-2.862C19.024,15.244,16.486,16.486,16,16C16,16,16.486,16.486,16,16z M16,21.778
	c-3.294,0-5.994-2.592-5.994-5.778c0-3.24,2.7-5.832,5.994-5.832S21.994,12.76,21.994,16C21.994,19.186,19.294,21.778,16,21.778z
	 M16,8.44C7.144,8.44,2.5,14.92,2.5,16c0,1.026,4.644,7.56,13.5,7.56S29.5,17.026,29.5,16C29.5,14.92,24.856,8.44,16,8.44z"/>
</svg>
