<?xml version="1.0" encoding="utf-8"?>
<!-- Generator: Adobe Illustrator 17.0.0, SVG Export Plug-In . SVG Version: 6.00 Build 0)  -->
<!DOCTYPE svg PUBLIC "-//W3C//DTD SVG 1.1//EN" "http://www.w3.org/Graphics/SVG/1.1/DTD/svg11.dtd">
<svg version="1.1" id="Layer_1" xmlns="http://www.w3.org/2000/svg" xmlns:xlink="http://www.w3.org/1999/xlink" x="0px" y="0px"
	 width="32px" height="32px" viewBox="0 0 32 32" enable-background="new 0 0 32 32" xml:space="preserve">
<path fill="none" d="M25.486,9.068L12.629,2.439c-1.714-0.914-5.2,0.857-6.229,2.457C6,5.582,6,6.096,6,6.382l0.171,14.971
	c0,0.343,0.4,0.743,0.743,0.971c0.743,0.4,11.543,7.143,11.829,7.371c0.171,0.114,0.343,0.114,0.571,0.114
	c0.114,0,0.286,0,0.457-0.114c0.343-0.114,0.514-0.457,0.514-0.8V13.182c0-0.286-0.171-0.629-0.514-0.8L8.114,5.868
	c0.114-0.229,0.629-0.8,1.6-1.257c1.029-0.571,1.771-0.343,1.943-0.286c0,0,11.2,6,11.543,6.171s0.343,0.229,0.343,0.514v14.914
	c0,0.743,0.743,1.029,1.314,1.029S26,26.439,26,25.925V9.868C26,9.525,25.829,9.239,25.486,9.068
	C25.486,9.068,25.829,9.239,25.486,9.068z"/>
</svg>
