<?xml version="1.0" encoding="utf-8"?>
<!-- Generator: Adobe Illustrator 17.0.0, SVG Export Plug-In . SVG Version: 6.00 Build 0)  -->
<!DOCTYPE svg PUBLIC "-//W3C//DTD SVG 1.1//EN" "http://www.w3.org/Graphics/SVG/1.1/DTD/svg11.dtd">
<svg version="1.1" id="Layer_1" xmlns="http://www.w3.org/2000/svg" xmlns:xlink="http://www.w3.org/1999/xlink" x="0px" y="0px"
	 width="32px" height="32px" viewBox="0 0 32 32" enable-background="new 0 0 32 32" xml:space="preserve">
<g>
	<path id="SVGID_1_" d="M23.793,11.26H18.87V4.08h-5.703v7.18H8.185l7.804,6.844L23.793,11.26z M30.037,20.291l-4.803-3.029h-2.942
		l5.103,3.646h-5.343c-0.12,0-0.24,0.112-0.36,0.224l-1.201,3.085h-9.005l-1.201-3.085c-0.06-0.112-0.24-0.224-0.36-0.224H4.583
		l5.103-3.646H6.745l-4.742,3.029c-0.72,0.393-1.141,1.29-0.961,2.019l0.84,4.319c0.18,0.729,1.021,1.29,1.861,1.29h24.493
		c0.84,0,1.681-0.561,1.861-1.29l0.84-4.319C31.177,21.582,30.697,20.684,30.037,20.291C30.037,20.291,30.697,20.684,30.037,20.291z
		"/>
</g>
<path fill="none" d="M23.793,11.26H18.87V4.08h-5.703v7.18H8.185l7.804,6.844L23.793,11.26z M30.037,20.291l-4.803-3.029h-2.942
	l5.103,3.646h-5.343c-0.12,0-0.24,0.112-0.36,0.224l-1.201,3.085h-9.005l-1.201-3.085c-0.06-0.112-0.24-0.224-0.36-0.224H4.583
	l5.103-3.646H6.745l-4.742,3.029c-0.72,0.393-1.141,1.29-0.961,2.019l0.84,4.319c0.18,0.729,1.021,1.29,1.861,1.29h24.493
	c0.84,0,1.681-0.561,1.861-1.29l0.84-4.319C31.177,21.582,30.697,20.684,30.037,20.291C30.037,20.291,30.697,20.684,30.037,20.291z"
	/>
</svg>
