<?xml version="1.0" encoding="utf-8"?>
<!-- Generator: Adobe Illustrator 17.0.0, SVG Export Plug-In . SVG Version: 6.00 Build 0)  -->
<!DOCTYPE svg PUBLIC "-//W3C//DTD SVG 1.1//EN" "http://www.w3.org/Graphics/SVG/1.1/DTD/svg11.dtd">
<svg version="1.1" id="Layer_1" xmlns="http://www.w3.org/2000/svg" xmlns:xlink="http://www.w3.org/1999/xlink" x="0px" y="0px"
	 width="32px" height="32px" viewBox="0 0 32 32" enable-background="new 0 0 32 32" xml:space="preserve">
<g>
	<g>
		<path id="SVGID_1_" d="M21.647,15.58c-0.112,0-0.28,0.112-0.336,0.224l-1.12,2.801h-8.402l-1.12-2.801
			c-0.056-0.112-0.224-0.224-0.336-0.224H5.347l2.857-3.193h15.571l2.857,3.193C26.632,15.58,21.647,15.58,21.647,15.58z
			 M29.097,14.683c-0.56-0.616-3.249-3.193-4.425-4.37c-0.392-0.392-0.896-0.616-1.456-0.616H15.99H8.764
			c-0.504,0-1.064,0.224-1.456,0.616c-1.176,1.177-3.865,3.754-4.369,4.37c-0.728,0.728-1.064,1.289-0.896,2.017l0.784,4.314
			c0.168,0.728,0.952,1.289,1.736,1.289h22.853c0.784,0,1.568-0.56,1.736-1.289l0.784-4.314
			C30.161,15.972,29.769,15.412,29.097,14.683C29.097,14.683,29.769,15.412,29.097,14.683z"/>
	</g>
	<g>
		<defs>
			<path id="SVGID_2_" d="M21.647,15.58c-0.112,0-0.28,0.112-0.336,0.224l-1.12,2.801h-8.402l-1.12-2.801
				c-0.056-0.112-0.224-0.224-0.336-0.224H5.347l2.857-3.193h15.571l2.857,3.193C26.632,15.58,21.647,15.58,21.647,15.58z
				 M29.097,14.683c-0.56-0.616-3.249-3.193-4.425-4.37c-0.392-0.392-0.896-0.616-1.456-0.616H15.99H8.764
				c-0.504,0-1.064,0.224-1.456,0.616c-1.176,1.177-3.865,3.754-4.369,4.37c-0.728,0.728-1.064,1.289-0.896,2.017l0.784,4.314
				c0.168,0.728,0.952,1.289,1.736,1.289h22.853c0.784,0,1.568-0.56,1.736-1.289l0.784-4.314
				C30.161,15.972,29.769,15.412,29.097,14.683C29.097,14.683,29.769,15.412,29.097,14.683z"/>
		</defs>
		<clipPath id="SVGID_3_">
			<use xlink:href="#SVGID_2_"  overflow="visible"/>
		</clipPath>
	</g>
</g>
</svg>
