<?xml version="1.0" encoding="utf-8"?>
<!-- Generator: Adobe Illustrator 16.2.1, SVG Export Plug-In . SVG Version: 6.00 Build 0)  -->
<!DOCTYPE svg PUBLIC "-//W3C//DTD SVG 1.1//EN" "http://www.w3.org/Graphics/SVG/1.1/DTD/svg11.dtd">
<svg version="1.1" id="Layer_1" xmlns="http://www.w3.org/2000/svg" xmlns:xlink="http://www.w3.org/1999/xlink" x="0px" y="0px"
	 width="32px" height="32px" viewBox="0 0 32 32" enable-background="new 0 0 32 32" xml:space="preserve">
<path fill="#2789AF" d="M28.844,14.043L32,10.379c-9.287-7.212-22.712-7.212-32,0l3.157,3.664c3.5-2.716,7.971-4.353,12.845-4.353
	C20.867,9.69,25.339,11.326,28.844,14.043z"/>
<path fill="#2789AF" d="M11.884,24.188l4.117,4.781l4.115-4.781c-1.109-0.938-2.55-1.51-4.115-1.51
	C14.429,22.678,12.992,23.247,11.884,24.188z"/>
<path fill="#2789AF" d="M7.812,19.459l3.328,3.862c1.312-1.107,3.003-1.777,4.86-1.777c1.851,0,3.546,0.675,4.859,1.781l3.328-3.866
	c-2.234-1.737-5.084-2.776-8.187-2.776C12.897,16.683,10.044,17.722,7.812,19.459z"/>
<path fill="#2789AF" d="M16.002,10.814c-4.589,0-8.8,1.536-12.101,4.098l3.157,3.667c2.44-1.896,5.552-3.031,8.944-3.031
	c3.388,0,6.503,1.136,8.943,3.031l3.153-3.664C24.797,12.35,20.586,10.814,16.002,10.814z"/>
</svg>
